<svg width="400" height="180" viewBox="0 0 400 180" fill="none" xmlns="http://www.w3.org/2000/svg">
<g clip-path="url(#clip0_201_5)">
<rect width="400" height="180" fill="#00704A"/>
<path d="M122.048 133.248C118.976 130.752 115.36 128.224 111.2 125.664C107.04 123.04 102.752 120.544 98.336 118.176C93.984 115.744 89.888 113.696 86.048 112.032C85.28 111.712 84.736 111.168 84.416 110.4C84.16 109.568 84.192 108.736 84.512 107.904C84.896 107.136 85.472 106.624 86.24 106.368C87.072 106.048 87.872 106.048 88.64 106.368C92.608 108.16 96.864 110.336 101.408 112.896C105.952 115.392 110.368 117.984 114.656 120.672C119.008 123.36 122.752 125.952 125.888 128.448C126.592 128.96 126.976 129.664 127.04 130.56C127.104 131.392 126.88 132.128 126.368 132.768C125.856 133.408 125.184 133.76 124.352 133.824C123.52 133.952 122.752 133.76 122.048 133.248ZM113.408 100.416C111.872 99.392 109.92 98.24 107.552 96.96C105.184 95.68 102.656 94.4 99.968 93.12C97.28 91.84 94.688 90.688 92.192 89.664C89.696 88.576 87.584 87.744 85.856 87.168C85.024 86.848 84.416 86.336 84.032 85.632C83.648 84.864 83.584 84.064 83.84 83.232C84.16 82.4 84.672 81.792 85.376 81.408C86.144 80.96 86.944 80.896 87.776 81.216C89.696 81.856 91.968 82.784 94.592 84C97.216 85.152 99.936 86.4 102.752 87.744C105.568 89.088 108.192 90.432 110.624 91.776C113.12 93.056 115.168 94.208 116.768 95.232C117.472 95.68 117.92 96.32 118.112 97.152C118.304 97.984 118.144 98.752 117.632 99.456C117.184 100.16 116.544 100.608 115.712 100.8C114.88 100.992 114.112 100.864 113.408 100.416ZM119.552 79.296C118.08 78.208 116.16 77.024 113.792 75.744C111.488 74.4 109.024 73.056 106.4 71.712C103.776 70.304 101.216 69.056 98.72 67.968C96.288 66.816 94.208 65.92 92.48 65.28C91.712 64.96 91.136 64.448 90.752 63.744C90.432 62.976 90.4 62.176 90.656 61.344C90.976 60.512 91.52 59.936 92.288 59.616C93.056 59.232 93.856 59.2 94.688 59.52C96.416 60.16 98.56 61.088 101.12 62.304C103.744 63.52 106.464 64.864 109.28 66.336C112.096 67.808 114.72 69.248 117.152 70.656C119.648 72.064 121.632 73.28 123.104 74.304C123.808 74.752 124.224 75.424 124.352 76.32C124.544 77.152 124.384 77.92 123.872 78.624C123.36 79.264 122.688 79.68 121.856 79.872C121.024 80 120.256 79.808 119.552 79.296ZM163.808 116.832C162.976 116.832 162.24 116.544 161.6 115.968C161.024 115.328 160.736 114.592 160.736 113.76C160.736 112.864 161.024 112.128 161.6 111.552C162.24 110.976 162.976 110.688 163.808 110.688H197.024V82.944H175.328C174.496 82.944 173.76 82.656 173.12 82.08C172.544 81.44 172.256 80.704 172.256 79.872C172.256 78.976 172.544 78.24 173.12 77.664C173.76 77.024 174.496 76.704 175.328 76.704H224.768C225.6 76.704 226.304 77.024 226.88 77.664C227.52 78.24 227.84 78.976 227.84 79.872C227.84 80.704 227.52 81.44 226.88 82.08C226.304 82.656 225.6 82.944 224.768 82.944H203.168V110.688H236.768C237.664 110.688 238.4 110.976 238.976 111.552C239.552 112.128 239.84 112.864 239.84 113.76C239.84 114.592 239.552 115.328 238.976 115.968C238.4 116.544 237.664 116.832 236.768 116.832H163.808ZM319.232 117.408C311.872 120.16 305.984 120.544 301.568 118.56C297.152 116.512 294.944 111.744 294.944 104.256V74.784C294.944 73.952 295.232 73.248 295.808 72.672C296.448 72.032 297.184 71.712 298.016 71.712C298.912 71.712 299.648 72.032 300.224 72.672C300.8 73.248 301.088 73.952 301.088 74.784V104.256C301.088 108.736 302.4 111.584 305.024 112.8C307.648 114.016 311.68 113.632 317.12 111.648C320.512 110.368 323.808 109.024 327.008 107.616C330.272 106.208 333.344 104.736 336.224 103.2C336.992 102.816 337.76 102.752 338.528 103.008C339.36 103.264 339.968 103.776 340.352 104.544C340.736 105.312 340.8 106.112 340.544 106.944C340.288 107.712 339.776 108.32 339.008 108.768C335.872 110.368 332.64 111.904 329.312 113.376C325.984 114.784 322.624 116.128 319.232 117.408ZM256.16 123.36C255.392 123.68 254.592 123.712 253.76 123.456C252.992 123.136 252.448 122.56 252.128 121.728C251.808 120.96 251.776 120.192 252.032 119.424C252.352 118.592 252.896 118.016 253.664 117.696C259.232 115.2 263.68 112.064 267.008 108.288C270.4 104.512 272.832 100.224 274.304 95.424C275.84 90.56 276.608 85.312 276.608 79.68C276.608 78.784 276.896 78.048 277.472 77.472C278.112 76.896 278.848 76.608 279.68 76.608C280.576 76.608 281.312 76.896 281.888 77.472C282.464 78.048 282.752 78.784 282.752 79.68C282.752 89.92 280.448 98.784 275.84 106.272C271.296 113.76 264.736 119.456 256.16 123.36Z" fill="white"/>
</g>
<defs>
<clipPath id="clip0_201_5">
<rect width="400" height="180" fill="white"/>
</clipPath>
</defs>
</svg>
